<?xml version="1.0" standalone="no"?>
<!DOCTYPE svg PUBLIC "-//W3C//DTD SVG 20010904//EN"
 "http://www.w3.org/TR/2001/REC-SVG-20010904/DTD/svg10.dtd">
<svg version="1.0" xmlns="http://www.w3.org/2000/svg"
 width="800.000000pt" height="800.000000pt" viewBox="0 0 800.000000 800.000000"
 preserveAspectRatio="xMidYMid meet">
<metadata>
Created by potrace 1.14, written by Peter Selinger 2001-2017
</metadata>
<g transform="translate(0.000000,800.000000) scale(0.100000,-0.100000)"
fill="#000000" stroke="none">
<path d="M3725 7993 c-940 -81 -1785 -453 -2453 -1080 -724 -678 -1163 -1576
-1258 -2573 -22 -227 -14 -661 15 -880 145 -1065 679 -2001 1516 -2656 488
-381 1066 -649 1671 -773 l151 -31 663 0 662 0 127 25 c460 93 906 265 1296
502 952 577 1628 1520 1860 2595 l25 118 0 735 0 735 -25 118 c-254 1175
-1039 2192 -2114 2736 -467 236 -930 371 -1451 421 -130 13 -571 18 -685 8z
m670 -463 c505 -59 953 -216 1322 -463 l108 -72 -898 -3 c-493 -1 -1301 -1
-1795 0 l-897 3 100 66 c402 268 894 433 1425 479 127 11 511 5 635 -10z
m-210 -2637 c1357 -795 1514 -889 1498 -901 -10 -8 -695 -404 -1523 -881
l-1505 -867 -2 96 c-2 52 -4 850 -5 1773 -2 1321 0 1676 9 1673 7 -3 695 -405
1528 -893z m2249 -3631 c-470 -444 -1137 -771 -1799 -881 -224 -37 -335 -46
-600 -45 -328 1 -513 22 -819 96 -137 32 -140 37 -43 58 31 7 57 17 57 21 0 5
16 11 35 15 19 3 33 9 30 13 -2 4 27 16 66 25 38 10 69 22 69 25 0 4 34 15 75
25 41 10 75 21 75 26 0 5 34 16 75 26 41 10 72 21 70 25 -3 4 12 10 33 14 20
3 46 12 57 19 11 7 67 25 125 41 58 16 106 31 108 35 1 4 119 38 261 76 143
38 257 73 254 78 -4 5 -1 6 6 2 6 -4 115 20 241 54 127 34 235 58 241 54 8 -5
9 -3 4 6 -6 10 -4 12 9 7 10 -4 58 5 108 19 50 14 97 23 105 20 8 -3 12 -2 9
3 -3 5 4 9 17 9 42 -1 113 10 177 28 36 9 74 16 85 16 11 -1 44 6 73 14 30 9
56 14 58 11 3 -3 31 2 62 10 31 8 80 16 109 18 30 1 93 12 141 23 172 41 231
53 269 57 21 3 76 15 123 29 145 41 148 35 34 -72z"/>
</g>
</svg>
